<svg width="245" height="256" viewBox="0 0 245 256" fill="none" xmlns="http://www.w3.org/2000/svg">
<path d="M78.4777 95.6105C161.309 97.6134 189.313 201.72 121.584 244.777C70.6507 277.016 -3.94936 235.789 0.163013 172.145C0.83023 158.78 5.16073 145.953 10.8898 134.237C26.1139 102.756 46.8105 58.03 65.3386 23.73C67.9113 19.8332 71.0485 16.3153 74.8401 13.266C83.3663 6.34563 93.7916 2.40398 104.704 1.53091C153.161 -1.11398 210.818 -5.94797 235.37 42.5651C256.586 81.4488 241.901 135.791 199.635 153.085C182.653 160.23 170.618 158.382 162.56 140.702C158.582 132.157 155.496 122.843 164.69 118.079C168.366 116.128 172.453 115.03 176.328 113.489C187.035 109.541 195.542 101.78 198.66 90.6802C203.62 73.8094 194.542 55.4814 178.137 49.1709C169.437 45.608 159.84 45.1715 150.544 45.0881C134.409 45.0881 118.273 45.6979 102.337 45.6594M76.4119 140.163C48.9469 142.654 34.6659 174.135 50.6855 196.533C60.5205 210.901 80.2805 215.574 95.6778 208.121C104.255 204.115 111.094 196.193 114.135 187.174C122.816 162.939 101.991 137.184 76.5466 140.15L76.4119 140.163Z" fill="#FF7627"/>
</svg>
