<svg width="799" height="256" viewBox="0 0 799 256" fill="none" xmlns="http://www.w3.org/2000/svg">
<path d="M78.5338 95.6105C161.424 97.6134 189.448 201.72 121.671 244.777C70.7012 277.016 -3.95218 235.789 0.163129 172.145C0.830824 158.78 5.16442 145.953 10.8976 134.237C26.1326 102.756 46.844 58.03 65.3853 23.73C67.9598 19.8332 71.0992 16.3153 74.8935 13.266C83.4259 6.34563 93.8586 2.40398 104.779 1.53091C153.271 -1.11398 210.968 -5.94797 235.538 42.5651C256.77 81.4488 242.074 135.791 199.778 153.085C182.784 160.23 170.74 158.382 162.676 140.702C158.696 132.157 155.608 122.843 164.808 118.079C168.486 116.128 172.576 115.03 176.454 113.489C187.169 109.541 195.682 101.78 198.802 90.6802C203.765 73.8094 194.681 55.4814 178.264 49.1709C169.559 45.608 159.954 45.1715 150.651 45.0881C134.505 45.0881 118.358 45.6979 102.41 45.6594M76.4665 140.163C48.9819 142.653 34.6906 174.135 50.7217 196.533C60.5638 210.9 80.3378 215.574 95.7462 208.121C104.33 204.115 111.174 196.193 114.217 187.174C122.903 162.939 102.064 137.184 76.6013 140.15L76.4665 140.163Z" fill="#FF7627"/>
<path d="M345.294 149.696V126.272H374.484C378.197 126.272 381.59 125.504 384.662 123.968C387.735 122.432 390.168 120.192 391.96 117.248C393.752 114.304 394.649 110.72 394.649 106.496C394.649 102.4 393.752 98.88 391.96 95.936C390.168 92.992 387.735 90.752 384.662 89.216C381.59 87.68 378.197 86.912 374.484 86.912H345.294V63.488H378.901C387.479 63.488 395.225 65.216 402.138 68.672C409.052 72.128 414.493 77.12 418.462 83.648C422.559 90.048 424.607 97.664 424.607 106.496C424.607 115.328 422.559 123.008 418.462 129.536C414.493 135.936 409.052 140.928 402.138 144.512C395.225 147.968 387.479 149.696 378.901 149.696H345.294ZM322.248 199.04V63.488H352.399V199.04H322.248Z" fill="black"/>
<path d="M460.73 143.168V120.896H489.344C495.361 120.896 499.97 119.36 503.171 116.288C506.5 113.216 508.164 109.056 508.164 103.808C508.164 98.944 506.564 94.912 503.363 91.712C500.162 88.512 495.553 86.912 489.536 86.912H460.73V63.488H492.993C501.955 63.488 509.829 65.216 516.614 68.672C523.4 72 528.713 76.672 532.554 82.688C536.395 88.704 538.315 95.616 538.315 103.424C538.315 111.36 536.395 118.336 532.554 124.352C528.713 130.24 523.336 134.848 516.422 138.176C509.508 141.504 501.379 143.168 492.033 143.168H460.73ZM437.684 199.04V63.488H467.835V199.04H437.684ZM511.429 199.04L469.179 140.672L496.834 133.184L547.149 199.04H511.429Z" fill="black"/>
<path d="M620.464 201.344C610.222 201.344 600.748 199.552 592.042 195.968C583.464 192.384 575.91 187.392 569.381 180.992C562.851 174.592 557.794 167.168 554.21 158.72C550.625 150.144 548.832 140.928 548.832 131.072C548.832 121.088 550.625 111.872 554.21 103.424C557.794 94.976 562.787 87.616 569.189 81.344C575.59 74.944 583.08 70.016 591.658 66.56C600.364 62.976 609.838 61.184 620.08 61.184C630.195 61.184 639.541 62.976 648.119 66.56C656.825 70.016 664.378 74.944 670.78 81.344C677.309 87.616 682.366 95.04 685.951 103.616C689.536 112.064 691.328 121.28 691.328 131.264C691.328 141.12 689.536 150.336 685.951 158.912C682.366 167.36 677.373 174.784 670.972 181.184C664.57 187.456 657.017 192.384 648.311 195.968C639.733 199.552 630.451 201.344 620.464 201.344ZM620.08 173.888C628.146 173.888 635.188 172.096 641.205 168.512C647.35 164.928 652.087 159.936 655.416 153.536C658.745 147.008 660.409 139.52 660.409 131.072C660.409 124.672 659.449 118.912 657.529 113.792C655.608 108.544 652.856 104.064 649.271 100.352C645.686 96.512 641.397 93.632 636.404 91.712C631.539 89.664 626.098 88.64 620.08 88.64C612.015 88.64 604.909 90.432 598.764 94.016C592.746 97.472 588.073 102.4 584.744 108.8C581.416 115.072 579.751 122.496 579.751 131.072C579.751 137.472 580.711 143.296 582.632 148.544C584.552 153.792 587.241 158.336 590.698 162.176C594.283 165.888 598.571 168.768 603.565 170.816C608.558 172.864 614.063 173.888 620.08 173.888Z" fill="black"/>
<path d="M748.685 201.152C739.211 201.152 730.633 199.04 722.951 194.816C715.397 190.592 709.38 184.96 704.899 177.92C700.546 170.752 698.369 162.752 698.369 153.92C698.369 142.4 702.402 130.752 710.468 118.976L748.685 63.488H782.676L740.235 122.624L728.904 123.584C730.697 120.512 732.553 117.888 734.474 115.712C736.522 113.408 739.083 111.68 742.155 110.528C745.228 109.248 749.133 108.608 753.87 108.608C762.32 108.608 769.873 110.592 776.531 114.56C783.316 118.4 788.758 123.712 792.855 130.496C796.952 137.152 799 144.832 799 153.536C799 162.368 796.759 170.432 792.278 177.728C787.797 184.896 781.78 190.592 774.226 194.816C766.673 199.04 758.159 201.152 748.685 201.152ZM748.685 174.848C752.654 174.848 756.238 173.888 759.439 171.968C762.64 170.048 765.136 167.424 766.929 164.096C768.721 160.768 769.617 157.056 769.617 152.96C769.617 148.736 768.721 145.024 766.929 141.824C765.136 138.496 762.64 135.936 759.439 134.144C756.238 132.224 752.654 131.264 748.685 131.264C744.588 131.264 740.939 132.224 737.738 134.144C734.666 135.936 732.233 138.496 730.441 141.824C728.648 145.024 727.752 148.736 727.752 152.96C727.752 157.056 728.648 160.768 730.441 164.096C732.233 167.424 734.666 170.048 737.738 171.968C740.939 173.888 744.588 174.848 748.685 174.848Z" fill="black"/>
</svg>
